<svg xmlns="http://www.w3.org/2000/svg" width="53.457" height="58.152" viewBox="0 0 53.457 58.152">
  <g id="bar-chart" transform="translate(0)">
    <g id="Group_26" data-name="Group 26" transform="translate(0 16.171)">
      <g id="Group_25" data-name="Group 25">
        <path id="Path_56" data-name="Path 56" d="M65.955,184.734H63.536V149.618a2.968,2.968,0,0,0-2.964-2.964H55.167a2.968,2.968,0,0,0-2.964,2.964v35.115H46.061V165.528a2.967,2.967,0,0,0-2.964-2.964H37.692a2.968,2.968,0,0,0-2.964,2.964v19.205H28.587v-9.946a2.968,2.968,0,0,0-2.964-2.964H20.217a2.968,2.968,0,0,0-2.964,2.964v9.946H14.7a1.1,1.1,0,1,0,0,2.205H65.955a1.1,1.1,0,1,0,0-2.205Zm-39.574,0H19.458v-9.946a.76.76,0,0,1,.759-.759h5.406a.76.76,0,0,1,.759.759Zm17.475,0H36.933V165.528a.76.76,0,0,1,.759-.759H43.1a.76.76,0,0,1,.759.759Zm17.475,0s-5.193,8.779-6.923,0,0-35.115,0-35.115a.76.76,0,0,1,.759-.759h5.406a.76.76,0,0,1,.759.759Z" transform="translate(-13.601 -146.654)" fill="#fff"/>
      </g>
    </g>
    <g id="Group_28" data-name="Group 28" transform="translate(9.455)">
      <g id="Group_27" data-name="Group 27">
        <path id="Path_57" data-name="Path 57" d="M139.824,1.16A1.1,1.1,0,0,0,138.667,0l-.053,0h-6.671a1.1,1.1,0,1,0,0,2.205h4.119l-10.9,10.9L121.051,9a1.1,1.1,0,0,0-1.559,0L99.669,28.818a1.1,1.1,0,0,0,1.559,1.559l19.043-19.043,4.111,4.111a1.1,1.1,0,0,0,1.559,0l11.68-11.68V7.493a1.1,1.1,0,0,0,2.205,0V1.213C139.827,1.195,139.825,1.177,139.824,1.16Z" transform="translate(-99.346)" fill="#fff"/>
      </g>
    </g>
    <g id="Group_30" data-name="Group 30" transform="translate(5.738 32.342)">
      <g id="Group_29" data-name="Group 29">
        <ellipse id="Ellipse_4" data-name="Ellipse 4" cx="1.103" cy="1.103" rx="1.103" ry="1.103" fill="#fff"/>
      </g>
    </g>
  </g>
</svg>
