<svg xmlns="http://www.w3.org/2000/svg" width="42.875" height="38.041" viewBox="0 0 42.875 38.041">
  <g id="case" transform="translate(0 0)">
    <g id="Group_7" data-name="Group 7" transform="translate(0 0)">
      <path id="Path_47" data-name="Path 47" d="M40.732,25.224H28.383V21.183A2.143,2.143,0,0,0,26.24,19.04H16.624a2.143,2.143,0,0,0-2.143,2.143v4.052H2.143A2.143,2.143,0,0,0,0,27.377V54.938a2.143,2.143,0,0,0,2.143,2.143H40.732a2.143,2.143,0,0,0,2.143-2.143V27.367A2.143,2.143,0,0,0,40.732,25.224ZM16.512,25.1l.02-3.94a.112.112,0,0,1,.112-.112h9.637a.112.112,0,0,1,.112.112V25.1a.112.112,0,0,1-.112.112H16.624a.112.112,0,0,1-.112-.112ZM2.143,27.255H40.732c-.955,1.808-5.92,10.358-15.161,12.409V38.487a2.143,2.143,0,0,0-2.1-2.143H19.406a2.143,2.143,0,0,0-2.143,2.143v1.2C8.033,37.654,3.046,29.073,2.1,27.276ZM23.549,38.487V44.4a.112.112,0,0,1-.112.112H19.406a.112.112,0,0,1-.112-.112v-5.91a.112.112,0,0,1,.112-.112h4.062A.112.112,0,0,1,23.549,38.487ZM40.813,54.948a.112.112,0,0,1-.112.112H2.143a.112.112,0,0,1-.112-.112V31.053c2.5,3.625,7.474,9.139,15.232,10.7v2.63a2.143,2.143,0,0,0,2.143,2.143h4.062a2.143,2.143,0,0,0,2.143-2.143v-2.63c7.758-1.544,12.734-7.108,15.232-10.7Z" transform="translate(0 -19.04)" fill="#fff"/>
    </g>
  </g>
</svg>
