<?xml version="1.0" encoding="utf-8"?>
<!-- Generator: Adobe Illustrator 16.0.0, SVG Export Plug-In . SVG Version: 6.00 Build 0)  -->
<!DOCTYPE svg PUBLIC "-//W3C//DTD SVG 1.1//EN" "http://www.w3.org/Graphics/SVG/1.1/DTD/svg11.dtd">
<svg version="1.1" id="https:_www.flaticon.com_free-icon_verified_907830_term_check_page_1_position_15"
	 xmlns="http://www.w3.org/2000/svg" xmlns:xlink="http://www.w3.org/1999/xlink" x="0px" y="0px" width="16.075px"
	 height="16.075px" viewBox="0 0 16.075 16.075" enable-background="new 0 0 16.075 16.075" xml:space="preserve">
<g id="Group_22" transform="translate(0 0)">
	<g id="Group_21">
		<path id="Path_42" fill="#0176DD" d="M13.721,2.354c-3.139-3.139-8.229-3.139-11.367,0s-3.139,8.229,0,11.367l0,0
			c3.139,3.139,8.229,3.139,11.367,0S16.86,5.493,13.721,2.354z M8.037,15.133c-3.921,0-7.1-3.18-7.1-7.1c0-3.921,3.179-7.1,7.1-7.1
			c3.92,0,7.1,3.179,7.1,7.1l0,0C15.137,11.954,11.958,15.133,8.037,15.133z"/>
	</g>
</g>
<g id="Group_24" transform="translate(4.06 5.321)">
	<g id="Group_23">
		<path id="Path_43" fill="#0176DD" d="M7.817,0.138c-0.185-0.184-0.482-0.184-0.666,0l-4.16,4.159L0.803,2.108
			C0.622,1.921,0.324,1.916,0.137,2.097C-0.05,2.278-0.055,2.576,0.126,2.763C0.129,2.766,0.133,2.77,0.137,2.774l2.522,2.522
			c0.184,0.184,0.482,0.184,0.666,0l4.493-4.493C7.991,0.622,7.983,0.327,7.817,0.138z"/>
	</g>
</g>
</svg>
