<?xml version="1.0" encoding="utf-8"?>
<!-- Generator: Adobe Illustrator 16.0.0, SVG Export Plug-In . SVG Version: 6.00 Build 0)  -->
<!DOCTYPE svg PUBLIC "-//W3C//DTD SVG 1.1//EN" "http://www.w3.org/Graphics/SVG/1.1/DTD/svg11.dtd">
<svg version="1.1" id="Layer_1" xmlns="http://www.w3.org/2000/svg" xmlns:xlink="http://www.w3.org/1999/xlink" x="0px" y="0px"
	 width="58.535px" height="56.466px" viewBox="439.732 440.767 58.535 56.466"
	 enable-background="new 439.732 440.767 58.535 56.466" xml:space="preserve">
<g id="surface1">
	<path fill="#FFFFFF" d="M491.592,459.504c-1.653-0.003-3.174,0.905-3.957,2.362c-0.783,1.456-0.701,3.226,0.214,4.603l-6.361,6.361
		c-1.17-0.781-2.642-0.964-3.968-0.493c-1.327,0.471-2.354,1.54-2.77,2.885l-8.361-0.879c-0.168-1.846-1.455-3.396-3.238-3.901
		c-1.782-0.506-3.692,0.138-4.805,1.62s-1.197,3.496-0.214,5.066l-8.882,8.355c-1.91-1.367-4.545-1.063-6.094,0.703
		c-1.549,1.766-1.507,4.418,0.098,6.134s4.248,1.935,6.113,0.509c1.865-1.427,2.346-4.036,1.11-6.033l8.882-8.355
		c1.164,0.831,2.657,1.051,4.013,0.593s2.408-1.538,2.83-2.905l8.36,0.879c0.178,1.856,1.489,3.409,3.289,3.896
		c1.802,0.488,3.716-0.191,4.806-1.705c1.091-1.514,1.13-3.545,0.098-5.099l6.36-6.361c1.603,1.064,3.705,0.989,5.229-0.186
		c1.522-1.175,2.128-3.189,1.506-5.01C495.229,460.722,493.516,459.501,491.592,459.504z M446.672,491.846
		c-1.488,0-2.695-1.207-2.695-2.695s1.207-2.695,2.695-2.695s2.695,1.207,2.695,2.695S448.16,491.846,446.672,491.846z
		 M461.945,477.471c-1.489,0-2.695-1.206-2.695-2.695c0-1.488,1.206-2.695,2.695-2.695c1.488,0,2.694,1.207,2.694,2.695
		C464.64,476.265,463.434,477.471,461.945,477.471z M479.015,479.268c-1.488,0-2.695-1.206-2.695-2.695
		c0-1.488,1.207-2.694,2.695-2.694s2.695,1.206,2.695,2.694C481.71,478.062,480.503,479.268,479.015,479.268z M491.592,466.691
		c-1.488,0-2.694-1.207-2.694-2.695s1.206-2.695,2.694-2.695c1.489,0,2.695,1.207,2.695,2.695S493.081,466.691,491.592,466.691z"/>
	<path fill="#FFFFFF" d="M443.977,467.59c0.238,0,0.467-0.095,0.636-0.264l7.45-7.45l4.306,4.306c0.352,0.351,0.92,0.351,1.271,0
		l9.247-9.247l7.9,7.899c0.351,0.351,0.919,0.351,1.271,0l15.535-15.536v1.425c0,0.497,0.402,0.898,0.898,0.898
		s0.898-0.401,0.898-0.898v-3.594c-0.002-0.107-0.022-0.213-0.063-0.313c-0.012-0.031-0.026-0.062-0.041-0.091
		c-0.034-0.067-0.076-0.13-0.126-0.187c-0.08-0.099-0.183-0.178-0.3-0.229c-0.009,0-0.015-0.01-0.022-0.013
		c-0.101-0.04-0.207-0.061-0.314-0.063c-0.013,0.001-0.021-0.004-0.032-0.004h-3.593c-0.497,0-0.898,0.402-0.898,0.897
		c0,0.496,0.401,0.898,0.898,0.898h1.424l-14.9,14.901l-7.899-7.899c-0.351-0.351-0.92-0.351-1.271,0l-9.247,9.247l-4.306-4.307
		c-0.352-0.35-0.92-0.35-1.271,0l-8.086,8.086c-0.257,0.258-0.334,0.644-0.195,0.979C443.286,467.371,443.613,467.59,443.977,467.59
		z"/>
</g>
</svg>
