<svg id="legal-paper" xmlns="http://www.w3.org/2000/svg" width="39.555" height="38.033" viewBox="0 0 39.555 38.033">
  <g id="Group_10" data-name="Group 10" transform="translate(0 0)">
    <g id="Group_9" data-name="Group 9">
      <g id="Group_8" data-name="Group 8">
        <path id="Path_48" data-name="Path 48" d="M287.974,61.635h0v-.008Z" transform="translate(-259.236 -56.238)" fill="#fff"/>
        <path id="Path_49" data-name="Path 49" d="M34.159,7.627H10.208a5.4,5.4,0,0,0-5.4,5.4V34.9A5.4,5.4,0,0,0,5.418,45.66H24.93a5.4,5.4,0,0,0,5.4-5.4V18.421h3.832a5.4,5.4,0,1,0,0-10.794ZM21.106,44.064H5.418a3.8,3.8,0,1,1,0-7.608H21.106A5.389,5.389,0,0,0,21.106,44.064Zm7.632-31.04v27.24a3.8,3.8,0,1,1-3.8-3.8.8.8,0,0,0,0-1.6H6.44V13.024a3.808,3.808,0,0,1,3.768-3.8H30.3A5.38,5.38,0,0,0,28.738,13.024Zm4.622,3.8H30.334V15.515H33.36Zm1.6-.08V14.716a.8.8,0,0,0-.8-.8H30.334v-.894a3.8,3.8,0,1,1,4.622,3.72Z" transform="translate(0 -7.627)" fill="#fff"/>
      </g>
    </g>
  </g>
  <g id="Group_12" data-name="Group 12" transform="translate(10.815 7.92)">
    <g id="Group_11" data-name="Group 11">
      <path id="Path_50" data-name="Path 50" d="M120.852,86.987h-11.68a.8.8,0,0,0,0,1.6h11.68a.8.8,0,0,0,0-1.6Z" transform="translate(-108.374 -86.987)" fill="#fff"/>
    </g>
  </g>
  <g id="Group_14" data-name="Group 14" transform="translate(10.815 13.62)">
    <g id="Group_13" data-name="Group 13">
      <path id="Path_51" data-name="Path 51" d="M120.852,144.107h-11.68a.8.8,0,0,0,0,1.6h11.68a.8.8,0,0,0,0-1.6Z" transform="translate(-108.374 -144.107)" fill="#fff"/>
    </g>
  </g>
  <g id="Group_16" data-name="Group 16" transform="translate(10.815 19.32)">
    <g id="Group_15" data-name="Group 15">
      <path id="Path_52" data-name="Path 52" d="M120.852,201.227h-11.68a.8.8,0,0,0,0,1.6h11.68a.8.8,0,0,0,0-1.6Z" transform="translate(-108.374 -201.227)" fill="#fff"/>
    </g>
  </g>
</svg>
