<svg xmlns="http://www.w3.org/2000/svg" width="56.456" height="56.456" viewBox="0 0 56.456 56.456">
  <path id="puzzle" d="M53.536,0H2.92A2.92,2.92,0,0,0,0,2.92V53.536a2.92,2.92,0,0,0,2.92,2.92H53.536a2.92,2.92,0,0,0,2.92-2.92V2.92A2.92,2.92,0,0,0,53.536,0Zm.973,2.92V27.254H45.476a.974.974,0,0,0-.779,1.557,5.5,5.5,0,0,1,1.051,3.309c0,2.683-1.746,4.867-3.894,4.867s-3.894-2.183-3.894-4.867a5.5,5.5,0,0,1,1.049-3.309.974.974,0,0,0-.779-1.557H29.2V19.879a7.771,7.771,0,0,0,2.92.562c3.757,0,6.814-2.619,6.814-5.84s-3.057-5.84-6.814-5.84a7.771,7.771,0,0,0-2.92.562V1.947H53.536A.973.973,0,0,1,54.509,2.92Zm-52.562,0a.973.973,0,0,1,.973-.973H27.255v9.033a.974.974,0,0,0,1.557.779,5.51,5.51,0,0,1,3.309-1.051c2.683,0,4.867,1.746,4.867,3.893s-2.183,3.893-4.867,3.893a5.509,5.509,0,0,1-3.309-1.049.974.974,0,0,0-1.557.779v9.031H19.879a7.771,7.771,0,0,0,.562-2.92c0-3.756-2.619-6.814-5.84-6.814s-5.84,3.057-5.84,6.814a7.771,7.771,0,0,0,.562,2.92H1.947Zm0,50.615V29.2h9.033a.974.974,0,0,0,.779-1.557,5.5,5.5,0,0,1-1.051-3.309c0-2.683,1.746-4.867,3.894-4.867s3.894,2.183,3.894,4.867a5.5,5.5,0,0,1-1.049,3.309.974.974,0,0,0,.779,1.557h9.031v7.375a7.771,7.771,0,0,0-2.92-.562c-3.757,0-6.814,2.619-6.814,5.84s3.057,5.84,6.814,5.84a7.771,7.771,0,0,0,2.92-.562v7.375H2.92A.973.973,0,0,1,1.947,53.536Zm52.562,0a.973.973,0,0,1-.973.973H29.2V45.476a.974.974,0,0,0-1.557-.779,5.51,5.51,0,0,1-3.309,1.051c-2.683,0-4.867-1.746-4.867-3.893s2.183-3.893,4.867-3.893a5.509,5.509,0,0,1,3.309,1.049.974.974,0,0,0,1.557-.779V29.2h7.375a7.771,7.771,0,0,0-.562,2.92c0,3.756,2.619,6.814,5.84,6.814s5.84-3.057,5.84-6.814a7.771,7.771,0,0,0-.562-2.92h7.375Zm0,0" transform="translate(0)" fill="#fff"/>
</svg>
