<?xml version="1.0" encoding="utf-8"?>
<!-- Generator: Adobe Illustrator 16.0.0, SVG Export Plug-In . SVG Version: 6.00 Build 0)  -->
<!DOCTYPE svg PUBLIC "-//W3C//DTD SVG 1.1//EN" "http://www.w3.org/Graphics/SVG/1.1/DTD/svg11.dtd">
<svg version="1.1" id="Capa_1" xmlns="http://www.w3.org/2000/svg" xmlns:xlink="http://www.w3.org/1999/xlink" x="0px" y="0px"
	 width="58.535px" height="56.466px" viewBox="268.373 392.712 58.535 56.466"
	 enable-background="new 268.373 392.712 58.535 56.466" xml:space="preserve">
<g>
	<path fill="#FFFFFF" d="M324.22,414.302l-19.539-0.352l-6.4-18.494c-0.094-0.273-0.351-0.458-0.644-0.458
		c-0.291,0.002-0.547,0.188-0.641,0.463l-6.186,18.386l-19.754,0.455c-0.283,0.006-0.535,0.19-0.626,0.459
		c-0.093,0.269-0.006,0.568,0.216,0.746l15.809,12.757l-5.879,17.736c-0.093,0.283,0.006,0.589,0.245,0.762
		c0.231,0.169,0.561,0.17,0.802-0.003l16.017-11.855l16.018,11.855c0.118,0.087,0.257,0.133,0.402,0.133
		c0.139,0,0.274-0.043,0.391-0.124c0.239-0.167,0.344-0.47,0.258-0.749l-5.367-17.754l15.301-12.765
		c0.217-0.18,0.3-0.478,0.206-0.745C324.754,414.49,324.502,414.308,324.22,414.302z M308.127,427.51
		c-0.209,0.175-0.294,0.456-0.215,0.717l4.906,16.224l-14.776-10.937c-0.118-0.087-0.257-0.133-0.402-0.133
		s-0.284,0.046-0.403,0.133l-14.7,10.881l5.354-16.153c0.088-0.266,0-0.563-0.218-0.739l-14.734-11.887l18.38-0.424
		c0.284-0.009,0.537-0.194,0.627-0.463l5.705-16.954l5.906,17.064c0.093,0.268,0.345,0.452,0.629,0.458l18.192,0.326L308.127,427.51
		z"/>
</g>
</svg>
