<?xml version="1.0" encoding="utf-8"?>
<!-- Generator: Adobe Illustrator 16.0.0, SVG Export Plug-In . SVG Version: 6.00 Build 0)  -->
<!DOCTYPE svg PUBLIC "-//W3C//DTD SVG 1.1//EN" "http://www.w3.org/Graphics/SVG/1.1/DTD/svg11.dtd">
<svg version="1.1" id="Capa_1" xmlns="http://www.w3.org/2000/svg" xmlns:xlink="http://www.w3.org/1999/xlink" x="0px" y="0px"
	 width="39.543px" height="38.041px" viewBox="277.869 401.925 39.543 38.041"
	 enable-background="new 277.869 401.925 39.543 38.041" xml:space="preserve">
<g>
	<g>
		<path fill="#FFFFFF" d="M314.113,418.632c-0.182-0.107-0.408-0.109-0.594-0.007l-1.648,0.915l-0.457-15.979
			c-0.008-0.324-0.273-0.582-0.598-0.582h-4.192c-0.324,0-0.59,0.258-0.599,0.582l-0.559,19.54l-1.838,1.018v-4.97
			c0-0.331-0.268-0.599-0.598-0.599c-0.102,0-0.202,0.026-0.291,0.075l-9.89,5.494v-4.97c0-0.331-0.268-0.599-0.599-0.599
			c-0.102,0-0.201,0.026-0.291,0.075l-10.779,5.988c-0.19,0.105-0.308,0.307-0.308,0.523v13.176c0,0.33,0.268,0.598,0.599,0.598
			h32.338c0.33,0,0.598-0.268,0.598-0.598v-19.164C314.408,418.936,314.296,418.74,314.113,418.632z M313.21,437.713h-10.18v-0.002
			c-0.05,0.01-0.1,0.012-0.156,0.008c-0.018-0.002-0.043-0.008-0.071-0.014c-0.078,0.02-0.16,0.031-0.233,0.035
			c-0.16,0.01-0.333,0.008-0.492-0.02c-0.033-0.006-0.063-0.01-0.094-0.012c-0.006,0-0.012,0-0.018,0s-0.012,0-0.018,0
			c-0.039,0.01-0.078,0.01-0.115,0.002v0.002h-3.594v-0.014c-0.282,0.051-0.587,0.074-0.858-0.012
			c-0.07,0.008-0.14,0.012-0.212,0.01c-0.006,0-0.011,0.002-0.016,0.004c-0.04,0.004-0.076,0.004-0.111,0.002v0.01h-3.461
			c-0.09,0.031-0.198,0.031-0.313,0.016c-0.15-0.021-0.322-0.01-0.473-0.004c-0.031,0-0.115-0.016-0.181-0.021
			c-0.001,0-0.003,0-0.004,0c-0.028,0.004-0.054,0.008-0.081,0.01v0.002c-0.001,0-0.002,0-0.003,0
			c-0.072,0.008-0.14,0.01-0.207,0.002c-0.042,0.008-0.083,0.006-0.121-0.004h-10.127V425.49l9.582-5.324v4.97
			c0,0.332,0.268,0.6,0.599,0.6c0.102,0,0.201-0.025,0.29-0.076l9.89-5.494v4.97c0,0.332,0.27,0.6,0.6,0.6
			c0.102,0,0.201-0.025,0.289-0.076l3.322-1.844c-0.008-0.111,0-0.227,0.014-0.342c0.025-0.201,0.018-0.402,0.052-0.602
			c0.027-0.158-0.022-0.307-0.007-0.461l-0.018,0.01l0.453-15.849h0.002c0-0.006-0.001-0.012-0.001-0.018
			c-0.005-0.219-0.072-0.499,0.001-0.707c0.054-0.153,0.004-0.315,0.04-0.472h-0.007l0.034-1.198h3.026l0.033,1.14
			c0.021,0.069,0.025,0.143,0.018,0.215c-0.023,0.189-0.004,0.377,0.008,0.567c0.01,0.156,0.059,0.336,0.012,0.492l0.389,13.605
			l-0.006,0.002c0.055,0.195,0.059,0.419,0.051,0.586c-0.008,0.239,0.035,0.487,0.049,0.731l0.809-0.451l1.617-0.898V437.713z"/>
	</g>
</g>
</svg>
