<?xml version="1.0" encoding="utf-8"?>
<!-- Generator: Adobe Illustrator 16.0.0, SVG Export Plug-In . SVG Version: 6.00 Build 0)  -->
<!DOCTYPE svg PUBLIC "-//W3C//DTD SVG 1.1//EN" "http://www.w3.org/Graphics/SVG/1.1/DTD/svg11.dtd">
<svg version="1.1" id="Capa_1" xmlns="http://www.w3.org/2000/svg" xmlns:xlink="http://www.w3.org/1999/xlink" x="0px" y="0px"
	 width="39.543px" height="38.041px" viewBox="277.869 401.925 39.543 38.041"
	 enable-background="new 277.869 401.925 39.543 38.041" xml:space="preserve">
<g>
	<g>
		<path fill="#FFFFFF" d="M291.901,405.188c-0.35-0.1-0.713,0.104-0.812,0.453l-8.548,30.248c-0.099,0.349,0.104,0.713,0.454,0.812
			c0.058,0.017,0.118,0.025,0.179,0.025c0.294,0,0.553-0.196,0.632-0.479L292.355,406
			C292.454,405.65,292.25,405.287,291.901,405.188z"/>
	</g>
</g>
<g>
	<g>
		<path fill="#FFFFFF" d="M312.74,435.889l-8.549-30.247c-0.099-0.35-0.463-0.553-0.812-0.454c-0.35,0.099-0.554,0.462-0.454,0.812
			l8.549,30.248c0.08,0.283,0.338,0.479,0.633,0.479c0.061,0,0.121-0.009,0.179-0.025
			C312.634,436.602,312.837,436.239,312.74,435.889z"/>
	</g>
</g>
<g>
	<g>
		<path fill="#FFFFFF" d="M297.64,430.151c-0.363,0-0.657,0.294-0.657,0.657v5.261c0,0.363,0.294,0.657,0.657,0.657
			c0.363,0,0.658-0.294,0.658-0.657v-5.261C298.298,430.445,298.003,430.151,297.64,430.151z"/>
	</g>
</g>
<g>
	<g>
		<path fill="#FFFFFF" d="M297.64,419.63c-0.363,0-0.657,0.294-0.657,0.658v5.26c0,0.363,0.294,0.657,0.657,0.657
			c0.363,0,0.658-0.294,0.658-0.657v-5.26C298.298,419.924,298.003,419.63,297.64,419.63z"/>
	</g>
</g>
<g>
	<g>
		<path fill="#FFFFFF" d="M297.64,410.424c-0.363,0-0.657,0.295-0.657,0.658v3.945c0,0.363,0.294,0.657,0.657,0.657
			c0.363,0,0.658-0.294,0.658-0.657v-3.945C298.298,410.719,298.003,410.424,297.64,410.424z"/>
	</g>
</g>
<g>
	<g>
		<path fill="#FFFFFF" d="M297.64,405.164c-0.363,0-0.657,0.294-0.657,0.657v1.315c0,0.363,0.294,0.657,0.657,0.657
			c0.363,0,0.658-0.294,0.658-0.657v-1.315C298.298,405.458,298.003,405.164,297.64,405.164z"/>
	</g>
</g>
</svg>
