<?xml version="1.0" encoding="utf-8"?>
<!-- Generator: Adobe Illustrator 16.0.0, SVG Export Plug-In . SVG Version: 6.00 Build 0)  -->
<!DOCTYPE svg PUBLIC "-//W3C//DTD SVG 1.1//EN" "http://www.w3.org/Graphics/SVG/1.1/DTD/svg11.dtd">
<svg version="1.1" id="Layer_1" xmlns="http://www.w3.org/2000/svg" xmlns:xlink="http://www.w3.org/1999/xlink" x="0px" y="0px"
	 width="39.543px" height="38.041px" viewBox="277.869 401.925 39.543 38.041"
	 enable-background="new 277.869 401.925 39.543 38.041" xml:space="preserve">
<g>
	<g>
		<path fill="#FFFFFF" d="M317.239,417.505l-18.862-13.812c-0.363-0.266-0.858-0.266-1.221,0l-18.863,13.812
			c-0.461,0.337-0.561,0.984-0.224,1.445c0.337,0.461,0.984,0.56,1.445,0.223l18.252-13.363l18.252,13.363
			c0.184,0.135,0.397,0.2,0.609,0.2c0.318,0,0.633-0.146,0.835-0.423C317.801,418.489,317.7,417.842,317.239,417.505z"/>
	</g>
</g>
<g>
	<g>
		<path fill="#FFFFFF" d="M312.241,419.407c-0.57,0-1.034,0.463-1.034,1.034v16.458h-8.271v-8.983c0-2.851-2.319-5.17-5.17-5.17
			s-5.17,2.319-5.17,5.17v8.983h-8.271v-16.458c0-0.571-0.463-1.034-1.034-1.034c-0.571,0-1.034,0.463-1.034,1.034v17.492
			c0,0.571,0.463,1.033,1.034,1.033h10.339c0.543,0,0.989-0.42,1.03-0.953c0.002-0.023,0.004-0.051,0.004-0.08v-10.018
			c0-1.711,1.392-3.102,3.103-3.102c1.71,0,3.102,1.391,3.102,3.102v10.018c0,0.029,0.002,0.056,0.005,0.079
			c0.04,0.533,0.485,0.954,1.029,0.954h10.339c0.571,0,1.034-0.462,1.034-1.033v-17.492
			C313.275,419.87,312.813,419.407,312.241,419.407z"/>
	</g>
</g>
</svg>
