<svg id="survey" xmlns="http://www.w3.org/2000/svg" width="41.66" height="38.188" viewBox="0 0 41.66 38.188">
  <g id="Group_18" data-name="Group 18" transform="translate(0 0)">
    <g id="Group_17" data-name="Group 17">
      <circle id="Ellipse_1" data-name="Ellipse 1" cx="0.868" cy="0.868" r="0.868" transform="translate(3.472 3.472)" fill="#fff"/>
      <circle id="Ellipse_2" data-name="Ellipse 2" cx="0.868" cy="0.868" r="0.868" transform="translate(6.943 3.472)" fill="#fff"/>
      <circle id="Ellipse_3" data-name="Ellipse 3" cx="0.868" cy="0.868" r="0.868" transform="translate(10.415 3.472)" fill="#fff"/>
      <path id="Path_53" data-name="Path 53" d="M107.534,215.069h19.094a.868.868,0,1,0,0-1.736H107.534a.868.868,0,1,0,0,1.736Z" transform="translate(-97.987 -197.711)" fill="#fff"/>
      <path id="Path_54" data-name="Path 54" d="M117.949,341.333H107.534a.868.868,0,0,0,0,1.736h10.415a.868.868,0,0,0,0-1.736Z" transform="translate(-97.987 -315.296)" fill="#fff"/>
      <path id="Path_55" data-name="Path 55" d="M38.337,31.748c-.05,0-.1.013-.149.015V24.8a3.476,3.476,0,0,0-3.472-3.472H3.472A3.476,3.476,0,0,0,0,24.8V56.049a3.476,3.476,0,0,0,3.472,3.472H34.716a3.476,3.476,0,0,0,3.472-3.472V39.918l2.5-2.5h0a3.322,3.322,0,0,0-2.349-5.671ZM1.736,24.8a1.738,1.738,0,0,1,1.736-1.736H34.716A1.738,1.738,0,0,1,36.452,24.8v3.472H1.736ZM36.452,56.049a1.738,1.738,0,0,1-1.736,1.736H3.472a1.738,1.738,0,0,1-1.736-1.736V30.012H36.452v2.329a3.265,3.265,0,0,0-.464.38l-9.443,9.442h-17a.868.868,0,1,0,0,1.736h15.6l-.833,4.169a.868.868,0,0,0,.851,1.038.886.886,0,0,0,.169-.017l4.338-.868a.863.863,0,0,0,.444-.237l6.331-6.33ZM29.08,46.571l-2.8.561.561-2.807,7.879-7.879,2.245,2.245ZM39.459,36.193l-1.271,1.271-2.245-2.245,1.272-1.272a1.587,1.587,0,0,1,2.244,2.245Z" transform="translate(0 -21.333)" fill="#fff"/>
    </g>
  </g>
</svg>
