<?xml version="1.0" encoding="utf-8"?>
<!-- Generator: Adobe Illustrator 16.0.0, SVG Export Plug-In . SVG Version: 6.00 Build 0)  -->
<!DOCTYPE svg PUBLIC "-//W3C//DTD SVG 1.1//EN" "http://www.w3.org/Graphics/SVG/1.1/DTD/svg11.dtd">
<svg version="1.1" id="Capa_1" xmlns="http://www.w3.org/2000/svg" xmlns:xlink="http://www.w3.org/1999/xlink" x="0px" y="0px"
	 width="58.535px" height="56.466px" viewBox="268.373 392.712 58.535 56.466"
	 enable-background="new 268.373 392.712 58.535 56.466" xml:space="preserve">
<g>
	<path fill="#FDFDFD" d="M322.91,420.074h-1.765c-0.45-12.28-10.354-22.183-22.634-22.633v-1.765c0-0.482-0.389-0.871-0.871-0.871
		c-0.481,0-0.871,0.389-0.871,0.871v1.765c-12.28,0.45-22.183,10.353-22.633,22.633h-1.764c-0.482,0-0.872,0.39-0.872,0.871
		c0,0.482,0.39,0.872,0.872,0.872h1.764c0.451,12.279,10.354,22.183,22.633,22.633v1.765c0,0.481,0.39,0.871,0.871,0.871
		c0.482,0,0.871-0.39,0.871-0.871v-1.765c12.28-0.45,22.184-10.354,22.634-22.633h1.765c0.481,0,0.871-0.39,0.871-0.872
		C323.781,420.464,323.391,420.074,322.91,420.074z M298.511,442.707v-1.721c0-0.481-0.389-0.871-0.871-0.871
		c-0.481,0-0.871,0.39-0.871,0.871v1.721c-11.319-0.448-20.442-9.571-20.891-20.89h1.721c0.481,0,0.871-0.39,0.871-0.872
		c0-0.481-0.39-0.871-0.871-0.871h-1.721c0.449-11.318,9.572-20.441,20.891-20.891v1.721c0,0.482,0.39,0.872,0.871,0.872
		c0.482,0,0.871-0.39,0.871-0.872v-1.721c11.319,0.449,20.442,9.572,20.891,20.891h-1.721c-0.481,0-0.871,0.39-0.871,0.871
		c0,0.482,0.39,0.872,0.871,0.872h1.721C318.954,433.135,309.831,442.259,298.511,442.707z"/>
	<path fill="#FDFDFD" d="M308.097,420.074h-4.428c-0.384-2.665-2.492-4.774-5.158-5.158v-4.427c0-0.481-0.389-0.871-0.871-0.871
		c-0.481,0-0.871,0.39-0.871,0.871v4.427c-2.666,0.384-4.774,2.493-5.158,5.158h-4.427c-0.482,0-0.871,0.39-0.871,0.871
		c0,0.482,0.389,0.872,0.871,0.872h4.427c0.384,2.665,2.493,4.773,5.158,5.158v4.426c0,0.482,0.39,0.872,0.871,0.872
		c0.482,0,0.871-0.39,0.871-0.872v-4.426c2.666-0.385,4.774-2.494,5.158-5.158h4.428c0.481,0,0.871-0.39,0.871-0.872
		C308.968,420.464,308.579,420.074,308.097,420.074z M297.64,425.302c-2.402,0-4.356-1.955-4.356-4.357s1.955-4.356,4.356-4.356
		c2.402,0,4.357,1.954,4.357,4.356S300.042,425.302,297.64,425.302z"/>
</g>
</svg>
